<?xml version="1.0" standalone="no"?>
<!DOCTYPE svg PUBLIC "-//W3C//DTD SVG 20010904//EN"
 "http://www.w3.org/TR/2001/REC-SVG-20010904/DTD/svg10.dtd">
<svg version="1.0" xmlns="http://www.w3.org/2000/svg"
 width="927.000000pt" height="336.000000pt" viewBox="0 0 927.000000 336.000000"
 preserveAspectRatio="xMidYMid meet">
<metadata>
Created by potrace 1.15, written by Peter Selinger 2001-2017
</metadata>
<g transform="translate(0.000000,336.000000) scale(0.100000,-0.100000)"
fill="#000000" stroke="none">
<path d="M8600 3053 c-92 -96 -158 -262 -179 -456 -14 -124 -14 -404 0 -503 7
-50 7 -80 1 -86 -18 -18 -34 31 -42 123 -7 94 -19 119 -56 119 -18 0 -26 -10
-44 -57 -47 -129 -53 -143 -58 -138 -3 3 -9 54 -13 115 -9 118 -16 141 -54
166 -52 34 -128 -15 -210 -136 -27 -38 -50 -68 -52 -67 -1 2 -8 71 -14 154
l-11 150 30 85 c37 103 100 350 108 424 6 44 3 58 -10 73 -56 62 -155 13 -197
-98 -19 -49 -22 -83 -27 -264 l-5 -208 -56 -89 c-31 -49 -83 -122 -116 -161
l-60 -72 -11 114 c-19 206 -62 249 -137 136 -64 -96 -148 -273 -145 -306 1
-20 -6 -38 -22 -56 -51 -54 -64 -27 -95 190 -8 59 -19 124 -25 146 -12 45 -51
79 -91 79 -32 0 -89 -45 -116 -91 -15 -25 -22 -29 -45 -24 -48 11 -56 -17 -64
-227 -8 -205 -5 -218 46 -218 39 0 47 15 53 110 4 47 16 118 27 158 29 105 78
197 95 180 2 -2 11 -62 20 -133 9 -72 22 -153 30 -181 19 -67 70 -114 122
-114 71 0 127 57 210 215 l42 80 1 -86 c0 -83 -1 -87 -34 -130 -19 -24 -109
-186 -200 -359 -191 -362 -233 -470 -246 -635 -11 -125 4 -296 31 -378 72
-216 237 -287 398 -173 87 62 200 244 236 381 9 35 15 106 16 175 l1 115 22
-90 c38 -153 70 -205 125 -205 102 0 139 241 127 828 l-6 303 50 89 c55 96
136 210 151 210 5 0 9 -56 9 -125 0 -172 20 -215 99 -215 23 0 37 9 62 39 l31
40 25 -29 c25 -30 83 -53 108 -44 10 4 17 -8 25 -38 48 -194 93 -303 155 -375
38 -45 133 -96 168 -91 41 6 31 37 -30 101 -101 105 -137 186 -173 391 l-21
116 25 33 c71 92 162 327 196 504 23 118 38 396 26 477 -10 68 -41 96 -103 96
-44 0 -50 -3 -103 -57z m107 -225 c-6 -191 -22 -306 -58 -423 -27 -91 -99
-246 -110 -239 -12 7 -11 275 1 406 11 116 46 251 85 327 23 47 71 111 82 111
3 0 3 -82 0 -182z m-918 -732 l8 -149 -38 -89 c-57 -130 -108 -292 -128 -403
l-17 -97 -17 123 c-53 367 -66 493 -54 508 7 9 46 54 87 101 42 47 91 107 110
134 19 26 36 42 37 35 2 -8 7 -81 12 -163z m-303 -571 c29 -202 38 -304 42
-457 4 -192 4 -200 -21 -280 -40 -127 -133 -270 -196 -302 -67 -34 -123 -27
-174 22 -67 63 -96 160 -104 342 -4 115 -2 148 16 222 39 163 80 248 344 717
l42 74 7 -39 c4 -21 24 -156 44 -299z m323 -155 c1 -236 -10 -404 -29 -454 -6
-17 -12 -7 -29 49 -31 104 -41 185 -41 334 0 141 10 198 57 331 l27 75 8 -40
c4 -22 7 -155 7 -295z"/>
<path d="M2188 2920 c-35 -27 -95 -145 -120 -237 -19 -69 -22 -108 -24 -338
-2 -258 -3 -261 -34 -369 -17 -60 -47 -148 -66 -195 -36 -86 -102 -206 -110
-198 -12 12 -36 188 -41 304 -5 109 -3 143 12 202 23 87 13 121 -34 121 -58 0
-114 -105 -187 -352 -15 -54 -29 -96 -30 -95 -1 1 -7 49 -14 107 -26 244 -75
292 -221 216 -47 -24 -50 -24 -78 -9 -27 16 -30 16 -55 0 -14 -10 -72 -69
-128 -132 l-103 -114 -8 124 c-8 117 -8 126 11 150 20 25 20 27 3 68 -15 36
-22 42 -47 42 -22 0 -32 -7 -43 -29 -20 -43 -34 -266 -23 -386 l9 -103 -101
-152 c-56 -83 -120 -187 -143 -231 -57 -110 -147 -340 -180 -459 -26 -94 -27
-112 -28 -315 0 -205 1 -217 23 -257 40 -75 118 -93 229 -52 74 28 203 153
256 249 84 152 117 303 117 533 0 181 -6 250 -42 514 l-22 163 47 67 c52 76
137 176 144 170 2 -3 -1 -32 -7 -65 -6 -33 -11 -134 -12 -223 -1 -150 1 -169
22 -217 60 -140 189 -159 250 -37 20 41 25 65 25 130 0 76 -3 86 -53 188 -28
60 -68 135 -88 168 -42 69 -40 74 41 120 89 51 88 52 105 -146 23 -280 34
-315 99 -315 40 0 60 42 140 310 6 18 11 -1 20 -75 7 -55 21 -146 30 -202 l17
-101 -72 -101 c-124 -173 -277 -506 -325 -706 -53 -221 15 -502 136 -559 74
-35 162 7 236 114 52 75 124 241 153 353 44 169 43 439 -2 756 l-18 124 70
106 c39 58 89 149 111 201 l40 95 7 -50 c4 -28 9 -90 10 -140 3 -87 1 -93 -39
-181 -42 -91 -92 -275 -114 -414 -22 -144 7 -411 61 -552 35 -94 108 -134 168
-92 106 74 130 443 62 969 -11 83 -20 160 -20 171 0 21 129 208 138 200 2 -3
15 -48 28 -102 41 -159 74 -208 140 -202 48 4 70 34 87 116 l13 63 24 -27 c37
-39 73 -54 132 -54 63 0 101 21 149 80 l33 41 24 -48 c39 -77 79 -120 137
-149 46 -22 65 -26 115 -22 33 2 66 10 72 16 21 21 -5 46 -54 53 -60 9 -80 23
-122 87 -35 53 -97 200 -98 231 0 9 10 59 22 111 27 115 38 354 29 605 -8 191
-20 243 -61 263 -45 21 -80 -4 -112 -80 -46 -111 -58 -181 -63 -379 -6 -201 3
-294 41 -451 l23 -97 -29 -52 c-49 -90 -81 -114 -130 -97 -31 11 -46 40 -82
160 -28 91 -48 115 -86 103 -31 -10 -38 -32 -56 -171 -9 -71 -17 -130 -19
-132 -2 -2 -19 46 -39 106 -40 118 -60 145 -105 145 -41 0 -75 -25 -125 -93
l-44 -59 -6 47 c-3 26 -13 120 -22 209 -19 190 -17 208 67 554 70 290 77 375
36 401 -21 13 -54 9 -79 -12z m-848 -1395 c0 -60 -16 -115 -34 -115 -20 0 -43
32 -55 75 -6 22 -11 96 -10 165 l0 125 50 -99 c40 -81 49 -109 49 -151z m-439
-136 c16 -116 22 -222 23 -364 1 -179 -1 -209 -22 -285 -53 -195 -161 -352
-279 -407 -113 -52 -128 -26 -128 227 1 170 3 193 28 285 36 128 105 304 168
425 49 93 178 294 185 287 2 -2 13 -77 25 -168z m1258 -305 c23 -288 12 -488
-31 -568 l-15 -29 -16 24 c-51 80 -82 267 -74 460 4 114 10 153 40 259 19 69
41 139 48 155 12 28 13 25 25 -65 7 -52 17 -158 23 -236z m-360 -21 c29 -318
4 -485 -105 -706 -54 -108 -89 -156 -128 -172 -51 -22 -88 11 -131 115 -23 59
-32 237 -15 323 28 148 154 426 271 602 l74 110 11 -75 c7 -41 17 -130 23
-197z"/>
<path d="M789 2674 c-14 -17 -17 -63 -6 -106 7 -28 38 -45 59 -31 7 4 22 6 34
5 48 -7 56 67 13 122 -24 30 -78 36 -100 10z"/>
<path d="M6463 2560 c-83 -50 -54 -120 49 -120 59 0 70 10 75 68 3 43 0 53
-16 61 -30 17 -73 13 -108 -9z"/>
<path d="M5633 2373 c-64 -61 -173 -284 -194 -400 -6 -32 -8 -77 -5 -99 5 -41
4 -42 -38 -65 -40 -21 -48 -22 -85 -11 -32 10 -46 22 -67 58 l-27 46 27 76
c41 119 56 299 29 367 -3 9 -18 22 -34 30 -59 31 -104 -19 -134 -147 -17 -71
-20 -253 -5 -292 8 -21 4 -30 -21 -57 -26 -28 -34 -31 -66 -26 -78 13 -122 87
-158 270 -14 67 -32 139 -41 159 -26 59 -88 73 -137 30 -23 -20 -102 -152
-158 -262 l-42 -85 -17 84 c-12 63 -23 89 -39 103 -68 54 -186 -19 -262 -161
-15 -28 -30 -47 -33 -44 -3 4 -6 36 -6 72 0 88 -15 139 -45 153 -33 15 -48 4
-243 -176 -102 -95 -170 -150 -180 -148 -42 9 -68 2 -89 -23 -29 -33 -29 -40
2 -70 30 -31 80 -33 133 -6 20 11 100 78 178 149 l141 130 7 -75 c3 -42 6
-141 6 -220 0 -130 2 -145 20 -163 49 -49 75 -19 110 125 45 185 94 293 160
349 18 15 34 25 36 24 1 -2 10 -86 19 -187 9 -101 20 -192 25 -202 13 -23 45
-33 69 -20 17 9 41 81 41 122 0 47 205 448 221 432 4 -4 14 -53 23 -107 21
-124 45 -192 88 -252 70 -98 189 -129 277 -71 l42 28 38 -34 c73 -66 162 -73
230 -19 33 26 43 29 84 25 56 -7 85 9 123 67 l26 39 24 -29 c36 -42 84 -56
127 -35 43 20 63 47 146 201 l68 124 7 -61 c3 -34 6 -92 6 -128 0 -100 24
-132 85 -117 18 5 39 38 96 156 40 82 76 150 79 150 4 0 10 -54 13 -120 7
-125 25 -193 58 -210 47 -26 123 3 117 43 -2 17 -9 22 -30 20 -32 -2 -33 3
-48 167 -6 63 -15 132 -21 152 -12 45 -53 81 -83 72 -32 -8 -81 -69 -123 -150
-21 -40 -39 -71 -41 -69 -2 2 -7 45 -12 96 -7 78 -12 96 -33 117 -20 19 -31
23 -52 18 -40 -10 -68 -46 -142 -183 -82 -150 -115 -194 -135 -175 -16 16 -28
234 -16 271 5 14 10 55 11 92 2 54 -2 71 -17 88 -28 30 -77 28 -113 -6z"/>
<path d="M6530 2201 c-16 -30 -17 -279 -2 -323 23 -64 103 -113 118 -73 3 8
-1 47 -10 87 -9 40 -19 123 -22 183 -4 61 -11 118 -16 128 -12 23 -55 22 -68
-2z"/>
</g>
</svg>
